<svg xmlns="http://www.w3.org/2000/svg" width="16" height="16" viewBox="0 0 16 16" fill="none">
  <rect width="16" height="16" rx="8" fill="url(#paint0_linear_781_28443)" />
  <path
    d="M4.72419 7.34873C4.72419 5.50211 6.19358 4 8 4C9.8064 4 11.2758 5.50211 11.2758 7.34873C11.2758 9.19546 9.8064 10.6974 8 10.6974C6.19358 10.6974 4.72419 9.19546 4.72419 7.34873ZM2 15.9921C2.07053 15.1824 2.45079 12.3132 5.37354 10.7765C6.09843 11.3582 7.0091 11.7085 8.00001 11.7085C8.99633 11.7085 9.91193 11.3546 10.6388 10.767C13.5741 12.2972 13.9285 15.1463 14 15.992C13.9826 16.0092 2.01733 15.9934 2 15.9921Z"
    fill="url(#paint1_linear_781_28443)" />
  <defs>
    <linearGradient id="paint0_linear_781_28443" x1="8" y1="0" x2="8" y2="16" gradientUnits="userSpaceOnUse">
      <stop stop-color="#E36060" />
      <stop offset="1" stop-color="#EB7878" />
    </linearGradient>
    <linearGradient id="paint1_linear_781_28443" x1="8" y1="4" x2="8" y2="16" gradientUnits="userSpaceOnUse">
      <stop stop-color="white" />
      <stop offset="1" stop-color="white" stop-opacity="0.5" />
    </linearGradient>
  </defs>
</svg>