<?xml version="1.0" standalone="no"?><!DOCTYPE svg PUBLIC "-//W3C//DTD SVG 1.1//EN" "http://www.w3.org/Graphics/SVG/1.1/DTD/svg11.dtd"><svg t="1744182694744" class="icon" viewBox="0 0 1024 1024" version="1.1" xmlns="http://www.w3.org/2000/svg" p-id="7720" xmlns:xlink="http://www.w3.org/1999/xlink" width="200" height="200"><path d="M117.419427 1023.99427a154.951019 154.951019 0 0 1-40.571494-5.042785 106.356913 106.356913 0 0 1-31.632013-13.982267 63.493243 63.493243 0 0 1-20.858791-22.921748A44.238974 44.238974 0 0 1 19.085127 953.624502a45.843497 45.843497 0 0 1 6.876524-16.962094 58.679676 58.679676 0 0 1 12.606962-13.982266 68.765245 68.765245 0 0 1 16.503659-9.627135 54.095326 54.095326 0 0 1 20.171138-3.896697h7.793395L87.850372 916.949704a80.226119 80.226119 0 0 0 11.231657 20.858792 60.971851 60.971851 0 0 0 14.669919 13.523831 59.825763 59.825763 0 0 0 17.420529 7.793395 77.017075 77.017075 0 0 0 19.941921 2.521392 75.870987 75.870987 0 0 0 48.823324-17.420529 185.436945 185.436945 0 0 0 43.551322-53.407674 487.316371 487.316371 0 0 0 37.591667-86.414991c11.460874-34.153405 22.921748-72.661942 32.7781-114.608742s20.400356-88.248731 30.027491-137.530491q13.294614-67.38994 26.818446-140.739535-17.191311 0-32.319666 1.604522a135.925968 135.925968 0 0 0-34.382622 6.41809l-11.460875 3.896697-4.584349-10.773222a22.921748 22.921748 0 0 1 0-10.085569 30.94436 30.94436 0 0 1 12.606961-19.025051 80.455337 80.455337 0 0 1 22.921749-11.460874 170.767026 170.767026 0 0 1 30.02749-7.564177c8.710264-1.375305 18.108181-2.521392 27.964533-3.209045q4.58435-20.858791 9.397917-40.11306 5.730437-22.921748 12.377744-45.843497t14.440702-45.843497q7.793394-22.921748 17.878964-47.448019a366.747975 366.747975 0 0 1 29.798272-58.450458 320.904478 320.904478 0 0 1 35.299493-45.843497 262.224802 262.224802 0 0 1 39.19619-34.841058 252.139233 252.139233 0 0 1 41.02993-22.921748A200.336081 200.336081 0 0 1 621.01024 4.664117a164.578154 164.578154 0 0 1 88.477949 2.979828 102.460215 102.460215 0 0 1 35.070275 20.400356 73.80803 73.80803 0 0 1 20.171139 29.798273A67.38994 67.38994 0 0 1 767.480213 91.766761a72.203508 72.203508 0 0 1-8.481047 22.921749 66.014635 66.014635 0 0 1-34.841058 29.11062 65.5562 65.5562 0 0 1-52.261586-3.438262l-5.042785-2.521392-2.521392-12.836179 2.292175-3.66748a211.567738 211.567738 0 0 0 10.773221-19.483486 63.034808 63.034808 0 0 0 4.813568-15.357572 30.256708 30.256708 0 0 0 0-16.045224 22.921748 22.921748 0 0 0-7.564177-10.314786 35.987145 35.987145 0 0 0-13.75305-5.50122 64.639331 64.639331 0 0 0-16.962093-2.292175 93.520734 93.520734 0 0 0-47.44802 11.919309 129.737096 129.737096 0 0 0-37.820884 33.924188 248.242535 248.242535 0 0 0-30.256708 52.949239 586.109107 586.109107 0 0 0-22.921749 67.38994c-7.105742 24.067836-13.523832 49.740194-19.254268 76.329422q-7.334959 33.465753-14.440702 66.702288H564.164304l18.795834-1.604522 11.231657-1.146088 1.375304 11.231657a68.765245 68.765245 0 0 1 0 19.483486 30.256708 30.256708 0 0 1-19.941921 24.297054 203.086691 203.086691 0 0 1-74.954117 2.292174L459.870349 412.671239q-5.959655 27.964533-12.836179 59.825764-8.251829 37.820885-17.878964 78.163162T408.75485 633.407677c-7.564177 27.964533-15.357571 55.470631-22.921749 81.372206s-17.191311 51.803151-26.589228 76.100205a687.652453 687.652453 0 0 1-29.569055 66.243853 460.727143 460.727143 0 0 1-50.657064 78.621597A295.002902 295.002902 0 0 1 225.380863 987.319472a190.250512 190.250512 0 0 1-55.241414 28.193751 178.101985 178.101985 0 0 1-52.720022 8.481047zM560.267607 928.639796a66.931505 66.931505 0 0 1-24.297053-3.896697 45.843497 45.843497 0 0 1-17.649747-11.460874 40.11306 40.11306 0 0 1-9.397917-17.420529 45.843497 45.843497 0 0 1 0-19.712704 65.5562 65.5562 0 0 1 8.710265-22.921748 91.686994 91.686994 0 0 1 17.420529-20.629574l5.272002-4.813567 6.647307 2.521392a128.361791 128.361791 0 0 0 22.921748 6.876525 68.765245 68.765245 0 0 0 47.677237-5.50122 153.117279 153.117279 0 0 0 32.7781-22.921748A343.826226 343.826226 0 0 0 683.815831 772.771907c11.231657-13.523832 22.921748-28.652186 35.070275-45.843497l-4.125915-22.921748q-2.521392-13.753049-5.501219-28.881403t-6.188872-32.319666l-6.647307-36.44558a137.530491 137.530491 0 0 0-6.876525-24.52627 38.508537 38.508537 0 0 0-7.564177-12.606962 18.566616 18.566616 0 0 0-8.251829-5.042785 74.954117 74.954117 0 0 0-32.778101 0l-25.901575 7.33496-13.294614 2.75061-1.375305-41.259148 8.251829-2.521392 37.36245-11.460874 32.319665-8.710265c9.856352-2.521392 18.337399-4.355132 25.443141-5.730437a63.722461 63.722461 0 0 1 37.133232 0 39.654625 39.654625 0 0 1 17.649747 13.065397 77.017075 77.017075 0 0 1 11.919309 22.921748 201.940604 201.940604 0 0 1 8.251829 33.924188q3.896697 22.921748 8.25183 44.238975l3.209045 15.357571c10.085569-14.211484 20.171139-27.735316 30.02749-40.342277a450.183139 450.183139 0 0 1 44.009757-49.052542 211.796955 211.796955 0 0 1 42.86367-32.319665 83.205947 83.205947 0 0 1 68.765245-7.793395 49.510977 49.510977 0 0 1 17.878964 12.377745 41.02993 41.02993 0 0 1 9.627134 19.025051 53.636891 53.636891 0 0 1 0 20.629573 68.765245 68.765245 0 0 1-11.460874 26.818446 76.329422 76.329422 0 0 1-24.067836 22.921748l-2.75061 1.604523h-9.397917l-5.501219-5.272002a26.818446 26.818446 0 0 0-5.730438-6.647307 27.735316 27.735316 0 0 0-6.876524-3.896698 29.798273 29.798273 0 0 0-7.33496-1.83374 54.324544 54.324544 0 0 0-35.070275 6.876525 147.386842 147.386842 0 0 0-30.256708 22.921748 346.118401 346.118401 0 0 0-32.319665 36.44558c-10.314787 13.294614-20.629574 27.735316-31.173578 43.092887q5.959655 31.632013 11.460875 55.929067c3.896697 17.420529 7.793394 32.319665 11.690091 44.697409a194.376427 194.376427 0 0 0 11.919309 30.256708 71.286638 71.286638 0 0 0 12.377745 17.878964 33.236535 33.236535 0 0 0 12.836179 8.251829 86.414992 86.414992 0 0 0 31.632012 2.062957l12.606962-1.604522c4.125915 0 8.710264-1.83374 13.294614-3.209045L935.955064 848.184459l12.606961-4.355132 6.41809 36.216362-6.647307 4.125915a308.755951 308.755951 0 0 1-31.632013 16.962094 313.340301 313.340301 0 0 1-33.236535 13.065397 258.557322 258.557322 0 0 1-32.319666 8.481047 84.810469 84.810469 0 0 1-64.868548-5.730438 80.684554 80.684554 0 0 1-25.44314-31.173577 261.537149 261.537149 0 0 1-17.649747-49.28176c-3.438262-13.065397-7.105742-27.964533-10.773221-45.843496-11.460874 15.128354-22.921748 29.339838-33.924188 42.405234a502.90316 502.90316 0 0 1-46.989584 49.740194 237.010879 237.010879 0 0 1-45.843497 33.236536 96.729778 96.729778 0 0 1-45.385062 12.606961z" p-id="7721"></path></svg>